<?xml version="1.0" encoding="UTF-8"?>
<svg width="112px" height="37px" viewBox="0 0 112 37" version="1.1" xmlns="http://www.w3.org/2000/svg" xmlns:xlink="http://www.w3.org/1999/xlink">
    <!-- Generator: sketchtool 53.2 (72643) - https://sketchapp.com -->
    <title>A9E764E7-AC00-4C51-98ED-A69F83F03444</title>
    <desc>Created with sketchtool.</desc>
    <g id="Footer-home" stroke="none" stroke-width="1" fill="none" fill-rule="evenodd">
        <g id="3.-Desktop---Home-+-footer-SEO-OP2---Alrevés" transform="translate(-860.000000, -1218.000000)">
            <g id="Group-4" transform="translate(28.000000, 852.000000)">
                <g id="badge" transform="translate(720.000000, 367.000000)">
                    <g id="itunes" transform="translate(113.000000, 0.000000)">
                        <rect id="Rectangle-3" stroke="#333333" stroke-width="0.605" x="-0.3025" y="-0.3025" width="110.605" height="35.605" rx="1.21"></rect>
                        <g id="Group-Copy" transform="translate(7.953488, 7.655172)" fill="#333333" fill-rule="nonzero">
                            <path d="M14.6421726,11.1165393 C14.618749,8.5172498 16.7737201,7.252687 16.8722608,7.19381386 C15.6518105,5.41713539 13.760153,5.1743845 13.0954074,5.15502895 C11.5066412,4.9880873 9.96552989,6.10425753 9.15620415,6.10425753 C8.33072421,6.10425753 7.08442719,5.17115857 5.74120493,5.19857894 C4.01270485,5.22519283 2.3956688,6.22442325 1.50880287,7.77609341 C-0.321468706,10.9399198 1.04356173,15.589285 2.79710083,18.1466374 C3.67427423,19.399103 4.69925862,20.7975417 6.04086546,20.7483463 C7.35339472,20.6943121 7.84367489,19.9128316 9.42759482,19.9128316 C10.996976,19.9128316 11.4573708,20.7483463 12.8256321,20.7168936 C14.2342789,20.6943121 15.1211448,19.4587826 15.9676253,18.1950263 C16.9813017,16.7594894 17.3883877,15.3457276 17.4045419,15.2731443 C17.3714258,15.2618535 14.6688271,14.2319768 14.6421726,11.1165393 Z" id="Shape"></path>
                            <path d="M12.0574996,3.4727088 C12.7634384,2.59122466 13.2464492,1.39198685 13.1123693,0.175006458 C12.0906157,0.220169415 10.812818,0.880677661 10.0769939,1.74280625 C9.4259794,2.50251171 8.84442797,3.74771895 8.99466209,4.9187299 C10.1424184,5.00421693 11.3208678,4.34048276 12.0574996,3.4727088 Z" id="Shape"></path>
                        </g>
                        <g id="Group-Copy-2" transform="translate(31.903855, 15.751124)" fill="#333333" fill-rule="nonzero">
                            <path d="M9.33005567,11.0699957 L7.51051454,11.0699957 L6.51381302,7.86556638 L3.04939389,7.86556638 L2.09996358,11.0699957 L0.328494875,11.0699957 L3.76086572,0.160672331 L5.88085948,0.160672331 L9.33005567,11.0699957 Z M6.21336039,6.52116525 L5.3120025,3.67251041 C5.21665886,3.38149675 5.0379897,2.69618008 4.77439259,1.61738014 L4.74234431,1.61738014 C4.63738619,2.08136249 4.46833151,2.76667916 4.23598148,3.67251041 L3.35064773,6.52116525 L6.21336039,6.52116525 L6.21336039,6.52116525 Z" id="Shape"></path>
                            <path d="M18.1569533,7.0400713 C18.1569533,8.37791438 17.803621,9.43540063 17.0969565,10.2117103 C16.4640029,10.9027653 15.6780188,11.2478829 14.7398054,11.2478829 C13.7270798,11.2478829 12.9995838,10.8757133 12.5565163,10.1313741 L12.524468,10.1313741 L12.524468,14.2752447 L10.8162947,14.2752447 L10.8162947,5.79322122 C10.8162947,4.95215076 10.7946621,4.08894686 10.7529993,3.20360953 L12.2552625,3.20360953 L12.3506061,4.4504596 L12.3826544,4.4504596 C12.9523126,3.51101832 13.8168149,3.04211744 14.9769627,3.04211744 C15.883929,3.04211744 16.6410697,3.40854873 17.2467822,4.14223105 C17.8540971,4.87673313 18.1569533,5.84240663 18.1569533,7.0400713 Z M16.4167317,7.10401233 C16.4167317,6.33835949 16.2484782,5.70714676 15.9103689,5.21037415 C15.5410124,4.69228786 15.0450653,4.43324471 14.4233287,4.43324471 C14.0018938,4.43324471 13.6189168,4.57752191 13.2768014,4.86197751 C12.9338848,5.14889239 12.7095468,5.52352124 12.6045887,5.98750358 C12.5517091,6.20391937 12.5252692,6.38098684 12.5252692,6.52034549 L12.5252692,7.83195636 C12.5252692,8.40414659 12.6967275,8.88698334 13.0396441,9.28128636 C13.3825607,9.67558937 13.8280318,9.872331 14.3760574,9.872331 C15.0194267,9.872331 15.5201811,9.6182064 15.8783206,9.1115967 C16.2372613,8.60416725 16.4167317,7.93524571 16.4167317,7.10401233 Z" id="Shape"></path>
                            <path d="M26.9998751,7.0400713 C26.9998751,8.37791438 26.6465428,9.43540063 25.9390771,10.2117103 C25.3069247,10.9027653 24.5209406,11.2478829 23.5827272,11.2478829 C22.5700016,11.2478829 21.8425056,10.8757133 21.4002393,10.1313741 L21.368191,10.1313741 L21.368191,14.2752447 L19.6600177,14.2752447 L19.6600177,5.79322122 C19.6600177,4.95215076 19.6383851,4.08894686 19.5967223,3.20360953 L21.0989855,3.20360953 L21.1943291,4.4504596 L21.2263774,4.4504596 C21.7952344,3.51101832 22.6597367,3.04211744 23.8206857,3.04211744 C24.7268508,3.04211744 25.4839915,3.40854873 26.0913064,4.14223105 C26.6962177,4.87673313 26.9998751,5.84240663 26.9998751,7.0400713 Z M25.2596535,7.10401233 C25.2596535,6.33835949 25.0905988,5.70714676 24.7524895,5.21037415 C24.383133,4.69228786 23.8887883,4.43324471 23.2662505,4.43324471 C22.8440144,4.43324471 22.4618386,4.57752191 22.118922,4.86197751 C21.7760054,5.14889239 21.5524687,5.52352124 21.4475105,5.98750358 C21.3954321,6.20391937 21.368191,6.38098684 21.368191,6.52034549 L21.368191,7.83195636 C21.368191,8.40414659 21.5396493,8.88698334 21.8809635,9.28128636 C22.2238801,9.67476962 22.6693512,9.872331 23.2189792,9.872331 C23.8623485,9.872331 24.3631029,9.6182064 24.7212424,9.1115967 C25.0801831,8.60416725 25.2596535,7.93524571 25.2596535,7.10401233 Z" id="Shape"></path>
                            <path d="M36.8867697,8.01066333 C36.8867697,8.93862802 36.5718953,9.69362402 35.939743,10.2764711 C35.2450965,10.9134221 34.2780396,11.2314878 33.0353676,11.2314878 C31.8880391,11.2314878 30.9682535,11.0052349 30.2720046,10.5519094 L30.6678008,9.09520157 C31.4177306,9.55918391 32.2405702,9.79199484 33.1371209,9.79199484 C33.7804901,9.79199484 34.2812445,9.6427991 34.6409864,9.34604714 C34.999126,9.04929519 35.1777951,8.65089339 35.1777951,8.15412077 C35.1777951,7.71145211 35.030373,7.33846277 34.7347276,7.03597251 C34.4406847,6.73348226 33.9495448,6.45230568 33.2637116,6.19244278 C31.3968992,5.48007413 30.4642943,4.43652374 30.4642943,3.06425087 C30.4642943,2.16743695 30.7911867,1.43211511 31.4457729,0.859924871 C32.0979554,0.286914876 32.9680662,0.000819756788 34.0561053,0.000819756788 C35.026367,0.000819756788 35.8323812,0.173788439 36.4757505,0.518906047 L36.0487071,1.94364334 C35.4478019,1.60918258 34.7683783,1.44195219 34.0080329,1.44195219 C33.4071276,1.44195219 32.9376203,1.5936072 32.6011134,1.89527769 C32.3166849,2.16497768 32.17407,2.49370015 32.17407,2.88308462 C32.17407,3.31427669 32.3367151,3.6708709 32.6636075,3.95122772 C32.948036,4.21027086 33.4648145,4.49062769 34.2147443,4.79311794 C35.1321263,5.17102582 35.8059414,5.61287473 36.2393944,6.11948442 C36.671245,6.62445461 36.8867697,7.25648709 36.8867697,8.01066333 Z" id="Shape"></path>
                            <path d="M42.5344779,4.51522039 L40.6516414,4.51522039 L40.6516414,8.33446727 C40.6516414,9.30587906 40.9833411,9.79117508 41.648343,9.79117508 C41.9536028,9.79117508 42.2067842,9.76412311 42.407086,9.71001916 L42.4543572,11.0372054 C42.1178503,11.1659072 41.6747828,11.230668 41.125956,11.230668 C40.4513397,11.230668 39.9241455,11.0199905 39.5435721,10.5994553 C39.1646012,10.1781003 38.9739139,9.47146993 38.9739139,8.47874446 L38.9739139,4.51358088 L37.8522241,4.51358088 L37.8522241,3.20197001 L38.9739139,3.20197001 L38.9739139,1.76165734 L40.6516414,1.24357105 L40.6516414,3.20197001 L42.5344779,3.20197001 L42.5344779,4.51522039 Z" id="Shape"></path>
                            <path d="M51.0296759,7.07204181 C51.0296759,8.28118308 50.6915665,9.27390855 50.0169502,10.0502182 C49.3094844,10.8494811 48.3704698,11.2478829 47.1999064,11.2478829 C46.0718069,11.2478829 45.1736538,10.8650565 44.5038448,10.0994036 C43.8340357,9.33375079 43.4991312,8.36725754 43.4991312,7.20238314 C43.4991312,5.9834048 43.8436502,4.98494103 44.5350918,4.20863135 C45.2249311,3.43150192 46.1559336,3.0429372 47.3264971,3.0429372 C48.4545965,3.0429372 49.3623641,3.42576362 50.0473961,4.19223622 C50.7027834,4.93575562 51.0296759,5.89569082 51.0296759,7.07204181 Z M49.257406,7.12860503 C49.257406,6.40312027 49.1059778,5.78092487 48.7991156,5.26201882 C48.440976,4.63408512 47.9290047,4.32093803 47.2656053,4.32093803 C46.5789709,4.32093803 46.0573852,4.63490488 45.6992456,5.26201882 C45.3923833,5.78174463 45.2409552,6.41377711 45.2409552,7.1613953 C45.2409552,7.88688006 45.3923833,8.50907546 45.6992456,9.02716175 C46.068602,9.65509545 46.5845794,9.96824255 47.2503824,9.96824255 C47.9025649,9.96824255 48.4145362,9.6485374 48.7838926,9.01076662 C49.098767,8.48202349 49.257406,7.85327003 49.257406,7.12860503 Z" id="Shape"></path>
                            <path d="M56.5820405,4.74065351 C56.4129858,4.70868299 56.2327142,4.69228786 56.0436294,4.69228786 C55.4427241,4.69228786 54.978024,4.92427903 54.6511316,5.38908113 C54.3667031,5.79895952 54.2240882,6.31704581 54.2240882,6.94252024 L54.2240882,11.0699957 L52.5167161,11.0699957 L52.5327402,5.68091454 C52.5327402,4.77426353 52.5111076,3.94876845 52.4686437,3.20442929 L53.9564851,3.20442929 L54.0189792,4.70950275 L54.0662505,4.70950275 C54.246522,4.19223622 54.5309505,3.77579977 54.9203371,3.46347243 C55.3009105,3.18229585 55.7119297,3.04211744 56.1549971,3.04211744 C56.3128349,3.04211744 56.4554498,3.05359404 56.5820405,3.07408796 L56.5820405,4.74065351 Z" id="Shape"></path>
                            <path d="M64.2215493,6.76463302 C64.2215493,7.07778011 64.2015192,7.3417418 64.1590552,7.55733783 L59.0345351,7.55733783 C59.0545653,8.33446727 59.3021383,8.92879094 59.7780553,9.33866933 C60.2099058,9.70510062 60.7683471,9.88872614 61.4541803,9.88872614 C62.2129234,9.88872614 62.9051662,9.76494286 63.5277041,9.51655656 L63.7953072,10.7297966 C63.0678112,11.0544203 62.2089173,11.2159124 61.2178243,11.2159124 C60.0256282,11.2159124 59.0898184,10.8568589 58.4087925,10.1395717 C57.7293689,9.42228452 57.3888559,8.4590703 57.3888559,7.25074879 C57.3888559,6.06456072 57.7053327,5.07675379 58.3390875,4.28896752 C59.0024869,3.44789705 59.8990375,3.02736182 61.027137,3.02736182 C62.1352063,3.02736182 62.97407,3.44789705 63.5437282,4.28896752 C63.9948078,4.9570693 64.2215493,5.78338414 64.2215493,6.76463302 Z M62.5926955,6.31130751 C62.6039124,5.79322122 62.4925446,5.34563402 62.2609958,4.96772614 C61.9653504,4.48161036 61.511066,4.23896235 60.8997451,4.23896235 C60.3413038,4.23896235 59.8870194,4.47587206 59.5400968,4.951331 C59.2556683,5.32923888 59.0866136,5.78256438 59.0345351,6.31048776 L62.5926955,6.31048776 L62.5926955,6.31130751 Z" id="Shape"></path>
                        </g>
                        <g id="Group-Copy-3" transform="translate(32.000000, 6.000000)" fill="#333333" fill-rule="nonzero">
                            <path d="M4.20497688,0.836410795 L4.01785701,1.48643478 C3.72713859,1.35596402 3.39546261,1.29072864 3.02122288,1.29072864 C2.45504475,1.29072864 2.0053146,1.45692354 1.67283553,1.79008996 C1.32027922,2.13801199 1.14359952,2.62494753 1.14359952,3.24934333 C1.14359952,3.84888756 1.30742978,4.31951424 1.63428723,4.65967016 C1.96114468,4.99982609 2.41569336,5.16990405 2.99713019,5.16990405 C3.40750895,5.16990405 3.75203437,5.1069985 4.03311571,4.98118741 L4.18168728,5.62422189 C3.86928544,5.76867166 3.42598001,5.84011994 2.84936172,5.84011994 C2.06072778,5.84011994 1.43431793,5.61645577 0.971738354,5.16990405 C0.493900072,4.70782009 0.255382476,4.08031784 0.255382476,3.28662069 C0.255382476,2.47350825 0.514780401,1.82037781 1.03437934,1.328006 C1.53791649,0.856602699 2.18922211,0.619736132 2.98990239,0.619736132 C3.51833531,0.619736132 3.92389553,0.691961019 4.20497688,0.836410795 Z" id="Shape"></path>
                            <path d="M8.85566845,3.9117931 C8.85566845,4.47483658 8.68942891,4.93614393 8.35694984,5.29804498 C8.00840898,5.67004198 7.54663249,5.85565217 6.97001419,5.85565217 C6.41427622,5.85565217 5.97177388,5.6778081 5.64170408,5.32056672 C5.31243736,4.96410195 5.14780401,4.51444378 5.14780401,3.97236882 C5.14780401,3.40544228 5.3172559,2.94025187 5.65776587,2.57912744 C5.99827584,2.218003 6.45603688,2.03705247 7.03265518,2.03705247 C7.58839314,2.03705247 8.03491093,2.21489655 8.37301163,2.57136132 C8.69424745,2.91773013 8.85566845,3.36505847 8.85566845,3.9117931 Z M7.98271011,3.9381979 C7.98271011,3.60037181 7.90721969,3.31069565 7.75704195,3.06916942 C7.58036225,2.77716342 7.32899522,2.63116042 7.00213777,2.63116042 C6.66403707,2.63116042 6.40704842,2.77716342 6.23036872,3.06916942 C6.07938788,3.31069565 6.00470055,3.60503148 6.00470055,3.95295352 C6.00470055,4.29077961 6.08019097,4.58045577 6.23036872,4.82198201 C6.41267004,5.11398801 6.66644634,5.259991 6.99410688,5.259991 C7.3153427,5.259991 7.56751281,5.11165817 7.74901105,4.81421589 C7.90481043,4.56802999 7.98271011,4.27602399 7.98271011,3.9381979 Z" id="Shape"></path>
                            <path d="M13.3810781,5.77255472 L12.5394402,5.77255472 L12.5394402,3.67570315 C12.5394402,3.02956222 12.2856639,2.70649175 11.7765051,2.70649175 C11.5267443,2.70649175 11.3251688,2.79502549 11.1685664,2.97286957 C11.0135701,3.15071364 10.9348673,3.3603988 10.9348673,3.60037181 L10.9348673,5.77177811 L10.0932294,5.77177811 L10.0932294,3.15770315 C10.0932294,2.83618591 10.0827893,2.48748726 10.062712,2.11005397 L10.8023575,2.11005397 L10.8417089,2.68397001 L10.8649985,2.68397001 C10.9629754,2.50612594 11.1091377,2.35934633 11.3010761,2.24207796 C11.5291536,2.1053943 11.784536,2.03627586 12.0640112,2.03627586 C12.4173706,2.03627586 12.7113014,2.14655472 12.9450004,2.36788906 C13.2357188,2.63892654 13.3810781,3.04354123 13.3810781,3.58095652 L13.3810781,5.77255472 L13.3810781,5.77255472 Z" id="Shape"></path>
                            <path d="M17.1748731,4.72102249 C17.1748731,5.06117841 17.0455757,5.33454573 16.7861777,5.54034783 C16.5267798,5.74614993 16.1677988,5.84866267 15.7108408,5.84866267 C15.2795817,5.84866267 14.914176,5.76556522 14.6130174,5.60014693 L14.7921064,4.99749625 C15.0828248,5.16835082 15.3920143,5.25377811 15.7188717,5.25377811 C16.1501308,5.25377811 16.3653588,5.10078561 16.3653588,4.79402399 C16.3653588,4.65889355 16.3187796,4.54706147 16.2256212,4.45852774 C16.1316598,4.37077061 15.9654202,4.2837901 15.7269026,4.19913943 C15.0515043,3.95761319 14.7142067,3.60658471 14.7142067,3.14450075 C14.7142067,2.82841979 14.8386856,2.56437181 15.0876433,2.35313343 C15.3374042,2.14267166 15.667474,2.03705247 16.0770497,2.03705247 C16.4512894,2.03705247 16.770116,2.11083058 17.0351355,2.25838681 L16.8560465,2.8423988 C16.6119073,2.70183208 16.3549187,2.63193703 16.0850806,2.63193703 C15.9084009,2.63193703 15.7702695,2.67232084 15.6714894,2.75231184 C15.5735125,2.83307946 15.523721,2.93481559 15.523721,3.06062669 C15.523721,3.18566117 15.5751187,3.28817391 15.6787173,3.36816492 C15.7670571,3.44349625 15.9381152,3.52581709 16.1934977,3.61590405 C16.8480156,3.85665367 17.1748731,4.22476762 17.1748731,4.72102249 Z" id="Shape"></path>
                            <path d="M19.2709368,5.77255472 L18.429299,5.77255472 L18.429299,2.1116072 L19.2709368,2.1116072 L19.2709368,5.77255472 Z M19.9953236,0.574692654 L19.0524964,1.6666087 L18.4678473,1.6666087 L19.1376239,0.574692654 L19.9953236,0.574692654 L19.9953236,0.574692654 Z" id="Shape"></path>
                            <path d="M24.0846556,2.1116072 C24.0629721,2.40827286 24.0533351,2.75464168 24.0533351,3.15149025 L24.0533351,5.24523538 C24.0533351,6.03349625 23.8710337,6.58644378 23.5072342,6.90252474 C23.1747551,7.19375412 22.707357,7.33898051 22.1050398,7.33898051 C21.5814254,7.33898051 21.1573942,7.24345727 20.8353552,7.05241079 L21.030506,6.42723838 C21.3477264,6.61284858 21.7051012,6.70604198 22.1050398,6.70604198 C22.8487007,6.70604198 23.218925,6.31928936 23.218925,5.54578411 L23.218925,5.19164918 L23.2028632,5.19164918 C22.9691642,5.56364618 22.5989399,5.74925637 22.088978,5.74925637 C21.6328232,5.74925637 21.2561742,5.58150825 20.9598341,5.24445877 C20.6634941,4.90818591 20.5165287,4.48104948 20.5165287,3.96382609 C20.5165287,3.37670765 20.6875868,2.90142129 21.030506,2.54029685 C21.3477264,2.20402399 21.7332094,2.03549925 22.1909704,2.03549925 C22.7057508,2.03549925 23.0743689,2.22887556 23.2968247,2.61562819 L23.3128865,2.61562819 L23.344207,2.11083058 L24.0846556,2.11083058 L24.0846556,2.1116072 Z M23.2108941,4.20612894 L23.2108941,3.55843478 C23.2108941,3.31224888 23.1321914,3.10178711 22.9723765,2.92549625 C22.8141679,2.7492054 22.6037584,2.66222489 22.3435574,2.66222489 C22.0568544,2.66222489 21.819943,2.77716342 21.6344293,3.0085937 C21.4497187,3.24002399 21.3565604,3.54833883 21.3565604,3.93509145 C21.3565604,4.28689655 21.4424909,4.57035982 21.6151552,4.78625787 C21.792638,5.02234783 22.035171,5.1403928 22.3427543,5.1403928 C22.5290711,5.1403928 22.698523,5.0868066 22.8462915,4.97885757 C22.9956661,4.87090855 23.101674,4.72412894 23.1635118,4.53851874 C23.1956354,4.44687856 23.2108941,4.33582309 23.2108941,4.20612894 Z" id="Shape"></path>
                            <path d="M28.8204746,5.77255472 L28.0800261,5.77255472 L28.0326438,5.21494753 L28.016582,5.21494753 C27.7515624,5.64208396 27.3516238,5.85565217 26.8167662,5.85565217 C26.4433296,5.85565217 26.1453833,5.74226687 25.9213214,5.51627286 C25.6563018,5.2397991 25.5245951,4.82275862 25.5245951,4.26592804 L25.5245951,2.1116072 L26.3654299,2.1116072 L26.3654299,4.1307976 C26.3654299,4.8344078 26.6151907,5.18543628 27.1139093,5.18543628 C27.4889522,5.18543628 27.747547,5.00992204 27.8937093,4.65811694 C27.9298483,4.56802999 27.9483194,4.46474063 27.9483194,4.34902549 L27.9483194,2.1116072 L28.7891541,2.1116072 L28.7891541,4.71791604 C28.7891541,5.06428486 28.7995943,5.41608996 28.8204746,5.77255472 Z" id="Shape"></path>
                            <path d="M33.4021005,3.76889655 C33.4021005,3.91489955 33.3908572,4.0376042 33.37078,4.13778711 L30.8466696,4.13778711 C30.8563066,4.49968816 30.9783762,4.77538531 31.2120753,4.96643178 C31.4256971,5.13728636 31.6995507,5.22271364 32.0368483,5.22271364 C32.4118911,5.22271364 32.7524011,5.16524438 33.0575751,5.04952924 L33.1892818,5.61490255 C32.8319069,5.76556522 32.4078756,5.84089655 31.9204003,5.84089655 C31.3341449,5.84089655 30.8723684,5.67392504 30.536677,5.33998201 C30.2025917,5.00603898 30.034746,4.55793403 30.034746,3.99566717 C30.034746,3.44349625 30.1897423,2.98374213 30.5021441,2.61718141 C30.8298047,2.22576912 31.2707008,2.03006297 31.8256357,2.03006297 C32.3717366,2.03006297 32.7837215,2.22576912 33.0648029,2.61718141 C33.2888649,2.92782609 33.4021005,3.31224888 33.4021005,3.76889655 Z M32.599011,3.55843478 C32.6038295,3.31690855 32.5492194,3.10877661 32.4359838,2.93326237 C32.2898215,2.70649175 32.0673657,2.59388306 31.7662071,2.59388306 C31.4899443,2.59388306 31.2674885,2.70416192 31.0948242,2.92549625 C30.9550866,3.10178711 30.8723684,3.31224888 30.8466696,3.55843478 L32.599011,3.55843478 L32.599011,3.55843478 Z" id="Shape"></path>
                            <polygon id="Shape" points="35.4644345 5.77255472 34.6235997 5.77255472 34.6235997 0.431796102 35.4644345 0.431796102"></polygon>
                            <path d="M40.419497,3.9117931 C40.419497,4.47483658 40.2532574,4.93614393 39.9207784,5.29804498 C39.5722375,5.67004198 39.1096579,5.85565217 38.5338427,5.85565217 C37.9773017,5.85565217 37.5347993,5.6778081 37.2055326,5.32056672 C36.8762659,4.96410195 36.7116325,4.51444378 36.7116325,3.97236882 C36.7116325,3.40544228 36.8810844,2.94025187 37.2215944,2.57912744 C37.5621044,2.218003 38.0198654,2.03705247 38.5956806,2.03705247 C39.1522217,2.03705247 39.5979364,2.21489655 39.9368402,2.57136132 C40.258076,2.91773013 40.419497,3.36505847 40.419497,3.9117931 Z M39.5457355,3.9381979 C39.5457355,3.60037181 39.4702451,3.31069565 39.3200674,3.06916942 C39.1441908,2.77716342 38.8920207,2.63116042 38.5659663,2.63116042 C38.2270625,2.63116042 37.9700739,2.77716342 37.7941972,3.06916942 C37.6432164,3.31069565 37.5685291,3.60503148 37.5685291,3.95295352 C37.5685291,4.29077961 37.6440195,4.58045577 37.7941972,4.82198201 C37.9764986,5.11398801 38.2302749,5.259991 38.5579354,5.259991 C38.8791712,5.259991 39.1305382,5.11165817 39.3120365,4.81421589 C39.4686389,4.56802999 39.5457355,4.27602399 39.5457355,3.9381979 Z" id="Shape"></path>
                            <path d="M47.0481981,3.76889655 C47.0481981,3.91489955 47.0369549,4.0376042 47.0168776,4.13778711 L44.4927672,4.13778711 C44.5040104,4.49968816 44.6244738,4.77538531 44.8581729,4.96643178 C45.0717947,5.13728636 45.3472544,5.22271364 45.6845521,5.22271364 C46.0579887,5.22271364 46.3984987,5.16524438 46.7052789,5.04952924 L46.8369856,5.61490255 C46.4780045,5.76556522 46.0555794,5.84089655 45.5664979,5.84089655 C44.9802425,5.84089655 44.518466,5.67392504 44.1843808,5.33998201 C43.8486893,5.00603898 43.6824498,4.55793403 43.6824498,3.99566717 C43.6824498,3.44349625 43.8374461,2.98374213 44.1498479,2.61718141 C44.4759023,2.22576912 44.9167984,2.03006297 45.4733395,2.03006297 C46.0178342,2.03006297 46.4314253,2.22576912 46.7109005,2.61718141 C46.9365687,2.92782609 47.0481981,3.31224888 47.0481981,3.76889655 Z M46.2451086,3.55843478 C46.2515333,3.31690855 46.1961201,3.10877661 46.0820814,2.93326237 C45.9359191,2.70726837 45.7134633,2.59388306 45.4123047,2.59388306 C45.1376481,2.59388306 44.9135861,2.70416192 44.742528,2.92549625 C44.6027904,3.10178711 44.5200722,3.31224888 44.4927672,3.55843478 L46.2451086,3.55843478 Z" id="Shape"></path>
                            <path d="M51.5575459,5.77255472 L50.7167112,5.77255472 L50.7167112,3.67570315 C50.7167112,3.02956222 50.4629349,2.70649175 49.952973,2.70649175 C49.7032122,2.70649175 49.5016367,2.79502549 49.3458373,2.97286957 C49.1900379,3.15071364 49.1121382,3.3603988 49.1121382,3.60037181 L49.1121382,5.77177811 L48.2696973,5.77177811 L48.2696973,3.15770315 C48.2696973,2.83618591 48.2600602,2.48748726 48.239983,2.11005397 L48.9788254,2.11005397 L49.0181768,2.68241679 L49.0414664,2.68241679 C49.1402464,2.50457271 49.2864087,2.3577931 49.477544,2.24052474 C49.7064245,2.10384108 49.9610039,2.03472264 50.2412822,2.03472264 C50.5938385,2.03472264 50.8877692,2.1450015 51.1214683,2.36633583 C51.4129898,2.63737331 51.5575459,3.04198801 51.5575459,3.5794033 L51.5575459,5.77255472 L51.5575459,5.77255472 Z" id="Shape"></path>
                            <path d="M58.4295832,3.76889655 C58.4295832,3.91489955 58.4183399,4.0376042 58.3982627,4.13778711 L55.8741522,4.13778711 C55.8837893,4.49968816 56.0058589,4.77538531 56.239558,4.96643178 C56.4531798,5.13728636 56.7270333,5.22271364 57.064331,5.22271364 C57.4393738,5.22271364 57.7798837,5.16524438 58.0850578,5.04952924 L58.2167645,5.61490255 C57.8593896,5.76556522 57.4353583,5.84089655 56.947883,5.84089655 C56.3616276,5.84089655 55.8998511,5.67392504 55.5641597,5.33998201 C55.2300744,5.00603898 55.0622287,4.55793403 55.0622287,3.99566717 C55.0622287,3.44349625 55.217225,2.98374213 55.5296268,2.61718141 C55.8572874,2.22576912 56.2981835,2.03006297 56.8531184,2.03006297 C57.3992193,2.03006297 57.8112042,2.22576912 58.0922856,2.61718141 C58.3163476,2.92782609 58.4295832,3.31224888 58.4295832,3.76889655 Z M57.6264936,3.55843478 C57.6313122,3.31690855 57.5767021,3.10877661 57.4634665,2.93326237 C57.3173042,2.70726837 57.0948484,2.59388306 56.7936898,2.59388306 C56.517427,2.59388306 56.2949712,2.70416192 56.1223069,2.92549625 C55.9825693,3.10178711 55.8998511,3.31224888 55.8741522,3.55843478 L57.6264936,3.55843478 Z" id="Shape"></path>
                            <polygon id="Shape" points="60.4935233 5.77255472 59.6510824 5.77255472 59.6510824 0.431796102 60.4935233 0.431796102"></polygon>
                        </g>
                    </g>
                </g>
            </g>
        </g>
    </g>
</svg>