<?xml version="1.0" encoding="UTF-8"?>
<svg width="112px" height="37px" viewBox="0 0 112 37" version="1.1" xmlns="http://www.w3.org/2000/svg" xmlns:xlink="http://www.w3.org/1999/xlink">
    <!-- Generator: sketchtool 53.2 (72643) - https://sketchapp.com -->
    <title>4A84526C-AC4A-479C-AE6A-899D75DE7FD6</title>
    <desc>Created with sketchtool.</desc>
    <g id="Footer-home" stroke="none" stroke-width="1" fill="none" fill-rule="evenodd">
        <g id="3.-Desktop---Home-+-footer-SEO-OP2---Alrevés" transform="translate(-747.000000, -1218.000000)">
            <g id="Group-4" transform="translate(28.000000, 852.000000)">
                <g id="badge" transform="translate(720.000000, 367.000000)">
                    <g id="google">
                        <g id="Group-10">
                            <path d="M85.670289,26.6975328 L87.2704057,26.6975328 L87.2704057,15.865421 L85.670289,15.865421 L85.670289,26.6975328 Z M100.082487,19.7672688 L98.2482698,24.4636968 L98.1933891,24.4636968 L96.2897132,19.7672688 L94.5661148,19.7672688 L97.4207711,26.3310035 L95.793214,29.9824329 L97.4627892,29.9824329 L101.861824,19.7672688 L100.082487,19.7672688 Z M91.008299,25.4671033 C90.4835019,25.4671033 89.752902,25.202821 89.752902,24.5477472 C89.752902,23.7115751 90.6635793,23.3909702 91.44906,23.3909702 C92.1530771,23.3909702 92.483219,23.5443407 92.9111173,23.7531671 C92.7867782,24.7565736 91.931839,25.4671033 91.008299,25.4671033 Z M91.2012391,19.5307144 C90.0427409,19.5307144 88.8430821,20.0462817 88.3465828,21.1891947 L89.7666221,21.7879459 C90.0701813,21.1891947 90.6352814,20.9933658 91.2286795,20.9933658 C92.0561782,20.9933658 92.8973972,21.495069 92.9111173,22.3875637 L92.9111173,22.4984756 C92.6212784,22.3312412 92.0012975,22.0808228 91.2423997,22.0808228 C89.7117414,22.0808228 88.1527852,22.9308589 88.1527852,24.5191527 C88.1527852,25.9688066 89.4081823,26.9028932 90.8145014,26.9028932 C91.8906785,26.9028932 92.483219,26.4150539 92.8562366,25.8431642 L92.9111173,25.8431642 L92.9111173,26.6793363 L94.4554958,26.6793363 L94.4554958,22.5270701 C94.4554958,20.6034409 93.0354565,19.5307144 91.2012391,19.5307144 Z M81.3124148,21.0860812 L79.0365789,21.0860812 L79.0365789,17.3731303 L81.3124148,17.3731303 C82.5086436,17.3731303 83.1877928,18.3739374 83.1877928,19.2291725 C83.1877928,20.0688107 82.5086436,21.0860812 81.3124148,21.0860812 Z M81.2712542,15.865421 L77.4373197,15.865421 L77.4373197,26.6975328 L79.0365789,26.6975328 L79.0365789,22.5937906 L81.2712542,22.5937906 C83.0445883,22.5937906 84.7879095,21.2957741 84.7879095,19.2291725 C84.7879095,17.1625709 83.0445883,15.865421 81.2712542,15.865421 Z M60.3642628,25.4688363 C59.2589303,25.4688363 58.3336752,24.5338832 58.3336752,23.2497308 C58.3336752,21.9517143 59.2589303,21.0020308 60.3642628,21.0020308 C61.4558751,21.0020308 62.3116717,21.9517143 62.3116717,23.2497308 C62.3116717,24.5338832 61.4558751,25.4688363 60.3642628,25.4688363 Z M62.2010527,20.3738185 L62.146172,20.3738185 C61.7868746,19.9414352 61.0965777,19.5506439 60.2262034,19.5506439 C58.4022761,19.5506439 56.7309859,21.1692652 56.7309859,23.2497308 C56.7309859,25.3154659 58.4022761,26.9210897 60.2262034,26.9210897 C61.0965777,26.9210897 61.7868746,26.5302984 62.146172,26.0831846 L62.2010527,26.0831846 L62.2010527,26.6134824 C62.2010527,28.0241438 61.4558751,28.7779984 60.2536438,28.7779984 C59.2726504,28.7779984 58.6646747,28.0657357 58.4159963,27.4652515 L57.0208249,28.0518717 C57.4212828,29.0292833 58.4854548,30.2293853 60.2536438,30.2293853 C62.1324518,30.2293853 63.7214209,29.1124673 63.7214209,26.3907919 L63.7214209,19.7733343 L62.2010527,19.7733343 L62.2010527,20.3738185 Z M64.8267534,26.6975328 L66.4294427,26.6975328 L66.4294427,15.8645545 L64.8267534,15.8645545 L64.8267534,26.6975328 Z M68.7910297,23.1240883 C68.7498692,21.7004295 69.8826421,20.9743028 70.6972781,20.9743028 C71.3335518,20.9743028 71.8720691,21.2949076 72.051289,21.7558854 L68.7910297,23.1240883 Z M73.7645973,21.8953919 C73.4610382,21.0722172 72.5349256,19.5506439 70.6423974,19.5506439 C68.7635894,19.5506439 67.2029182,21.0436227 67.2029182,23.2358668 C67.2029182,25.3016019 68.7498692,26.9210897 70.8216173,26.9210897 C72.493765,26.9210897 73.4610382,25.8882222 73.8614961,25.2877379 L72.6181042,24.4498328 C72.2039261,25.064181 71.6371109,25.4688363 70.8216173,25.4688363 C70.0069812,25.4688363 69.4264459,25.091909 69.0534283,24.3527848 L73.930097,22.3147777 L73.7645973,21.8953919 Z M34.9124596,20.6814259 L34.9124596,22.2445912 L38.6143373,22.2445912 C38.5037183,23.1240883 38.2138794,23.7661646 37.7722609,24.2132784 C37.2328861,24.7574401 36.3899521,25.3570579 34.9124596,25.3570579 C32.6331936,25.3570579 30.8504269,23.5010157 30.8504269,21.1978597 C30.8504269,18.8938372 32.6331936,17.0377949 34.9124596,17.0377949 C36.1421313,17.0377949 37.039946,17.5265007 37.7028025,18.154713 L38.7944148,17.0516589 C37.8683022,16.1582978 36.639488,15.4737631 34.9124596,15.4737631 C31.7902597,15.4737631 29.1654165,18.0429345 29.1654165,21.1978597 C29.1654165,24.3527848 31.7902597,26.9210897 34.9124596,26.9210897 C36.59747,26.9210897 37.8683022,26.363064 38.8630157,25.3154659 C39.8851696,24.2825984 40.2033064,22.8312115 40.2033064,21.657971 C40.2033064,21.2949076 40.1758661,20.9604388 40.1201278,20.6814259 L34.9124596,20.6814259 Z M44.4128311,25.4688363 C43.3074986,25.4688363 42.3539456,24.5477472 42.3539456,23.2358668 C42.3539456,21.9092559 43.3074986,21.0020308 44.4128311,21.0020308 C45.5173061,21.0020308 46.4708591,21.9092559 46.4708591,23.2358668 C46.4708591,24.5477472 45.5173061,25.4688363 44.4128311,25.4688363 Z M44.4128311,19.5506439 C42.3951062,19.5506439 40.7512564,21.0999452 40.7512564,23.2358668 C40.7512564,25.3570579 42.3951062,26.9210897 44.4128311,26.9210897 C46.4296985,26.9210897 48.0735483,25.3570579 48.0735483,23.2358668 C48.0735483,21.0999452 46.4296985,19.5506439 44.4128311,19.5506439 Z M52.3988371,25.4688363 C51.2935046,25.4688363 50.3399516,24.5477472 50.3399516,23.2358668 C50.3399516,21.9092559 51.2935046,21.0020308 52.3988371,21.0020308 C53.5041696,21.0020308 54.456865,21.9092559 54.456865,23.2358668 C54.456865,24.5477472 53.5041696,25.4688363 52.3988371,25.4688363 Z M52.3988371,19.5506439 C50.3819697,19.5506439 48.7381199,21.0999452 48.7381199,23.2358668 C48.7381199,25.3570579 50.3819697,26.9210897 52.3988371,26.9210897 C54.4157045,26.9210897 56.0595543,25.3570579 56.0595543,23.2358668 C56.0595543,21.0999452 54.4157045,19.5506439 52.3988371,19.5506439 L52.3988371,19.5506439 Z" id="Fill-5" fill="#333333"></path>
                            <path d="M17.805862,22.6866567 L14.3134623,19.31089 L14.3134623,19.0721003 L17.8075553,15.6971514 L22.0255275,18.0114488 C23.2074403,18.6607605 23.2074403,19.7222298 22.0255275,20.3707237 L17.8862931,22.6424969 L17.805862,22.6866567" id="Fill-7"></path>
                            <path d="M16.6585077,15.232937 L4.34100659,8.21514923 C3.6186319,7.8039309 2.9772712,7.85469859 2.58823529,8.26676305 L13.097268,18.8035982 L16.6585077,15.232937" id="Fill-11"></path>
                            <path d="M29.9068682,11.6995597 L30.9300908,11.6995597 C31.5965318,11.6995597 32.12353,11.5201624 32.5139702,11.1595557 C32.9034487,10.8007611 33.0977071,10.296999 33.0977071,9.64917541 C33.0977071,9.00678811 32.9034487,8.50393203 32.5139702,8.14151324 C32.12353,7.78090655 31.5965318,7.5987911 30.9300908,7.5987911 L29.9068682,7.5987911 L29.9068682,11.6995597 Z M29.1654165,12.3673163 L29.1654165,6.93103448 L30.9300908,6.93103448 C31.8167555,6.93103448 32.5255103,7.18291554 33.0582784,7.68667766 C33.5900849,8.19043978 33.8555073,8.84369965 33.8555073,9.64917541 C33.8555073,10.4537451 33.5900849,11.107911 33.0582784,11.6116732 C32.5255103,12.1154353 31.8167555,12.3673163 30.9300908,12.3673163 L29.1654165,12.3673163 L29.1654165,12.3673163 Z" id="Fill-13" fill="#333333"></path>
                            <polygon id="Fill-15" fill="#333333" points="34.5503356 12.3673163 35.1530122 12.3673163 35.1530122 6.93103448 34.5503356 6.93103448"></polygon>
                            <path d="M38.024922,12.3673163 C37.6100469,12.3673163 37.2037555,12.2441587 36.8070015,11.9969761 C36.4092937,11.7497936 36.1489238,11.4028707 36.0268456,10.9570747 L36.6992293,10.7107595 C36.7793431,10.9961036 36.9414782,11.237215 37.1894495,11.4332264 C37.4383745,11.6292379 37.7159116,11.7272436 38.024922,11.7272436 C38.3444234,11.7272436 38.6181456,11.6517879 38.8451347,11.4991418 C39.0711701,11.3464957 39.1837109,11.1392093 39.1837109,10.8772825 C39.1837109,10.5867346 39.0711701,10.3629693 38.8451347,10.2051194 C38.6181456,10.0472694 38.259541,9.90156182 37.7702745,9.76539458 C37.2628871,9.62055427 36.8794854,9.4323486 36.6191155,9.20164487 C36.3577919,8.97180845 36.2261764,8.67779129 36.2261764,8.31872609 C36.2261764,7.94578397 36.3892652,7.62141106 36.7144891,7.34560735 C37.039713,7.06893634 37.4631716,6.93103448 37.9848651,6.93103448 C38.4703166,6.93103448 38.8642094,7.0411825 39.1674974,7.26147855 C39.4717391,7.4826419 39.6691624,7.722886 39.7597673,7.98481279 L39.0883373,8.23893382 C39.0406505,8.07501275 38.9223873,7.92149937 38.7325939,7.78099559 C38.5437542,7.64135912 38.2995979,7.57110724 38.0010786,7.57110724 C37.7187728,7.57110724 37.4774777,7.64222643 37.2781469,7.78533213 C37.0778624,7.92843782 36.9786739,8.10623581 36.9786739,8.31872609 C36.9786739,8.51300291 37.0702325,8.67605667 37.2543035,8.80962199 C37.4383745,8.94318731 37.7082817,9.06287571 38.0649789,9.1695545 C38.3472847,9.25194869 38.5828574,9.33174096 38.7726508,9.40979861 C38.9624442,9.48698896 39.1541451,9.59019852 39.3477534,9.71855999 C39.5423155,9.84692147 39.6882371,10.006506 39.7874256,10.1981809 C39.8856604,10.3898558 39.9352546,10.6110192 39.9352546,10.8625383 C39.9352546,11.1149247 39.8789842,11.3404246 39.7635822,11.5390379 C39.6491339,11.7376513 39.4965362,11.8946339 39.3076965,12.0117204 C39.1188569,12.1270722 38.9157111,12.2155376 38.6963519,12.2762491 C38.4779465,12.3369606 38.2538186,12.3673163 38.024922,12.3673163" id="Fill-17" fill="#333333"></path>
                            <path d="M41.3976103,9.49695952 L42.6844647,9.49695952 C43.0074243,9.49695952 43.2665894,9.39910645 43.4609632,9.20158821 C43.6563338,9.00406997 43.7530223,8.78661869 43.7530223,8.54832834 C43.7530223,8.31003798 43.6563338,8.09258671 43.4609632,7.89597451 C43.2665894,7.69755022 43.0074243,7.5987911 42.6844647,7.5987911 L41.3976103,7.5987911 L41.3976103,9.49695952 Z M41.3976103,12.3673163 L40.6300829,12.3673163 L40.6300829,6.93103448 L42.6675193,6.93103448 C43.173888,6.93103448 43.6134719,7.08415642 43.9832805,7.3904003 C44.354086,7.69664418 44.5384919,8.08262019 44.5384919,8.54832834 C44.5384919,9.01403648 44.354086,9.40001249 43.9832805,9.70625637 C43.6134719,10.0125002 43.173888,10.1656222 42.6675193,10.1656222 L41.3976103,10.1656222 L41.3976103,12.3673163 L41.3976103,12.3673163 Z" id="Fill-19" fill="#333333"></path>
                            <path d="M46.5225184,11.1426785 C46.917352,11.5329668 47.3991377,11.7272436 47.9687628,11.7272436 C48.5392752,11.7272436 49.0219482,11.5329668 49.4150073,11.1426785 C49.8089536,10.7523902 50.006814,10.2545559 50.006814,9.64917541 C50.006814,9.04379495 49.8089536,8.54596059 49.4150073,8.15567232 C49.0219482,7.76538406 48.5392752,7.57110724 47.9687628,7.57110724 C47.3991377,7.57110724 46.917352,7.76538406 46.5225184,8.15567232 C46.1294594,8.54596059 45.9315989,9.04379495 45.9315989,9.64917541 C45.9315989,10.2545559 46.1294594,10.7523902 46.5225184,11.1426785 Z M49.9207492,11.578934 C49.3981492,12.1045222 48.7468956,12.3673163 47.9687628,12.3673163 C47.1906301,12.3673163 46.5402638,12.1045222 46.0176638,11.578934 C45.4941765,11.0533459 45.2333202,10.4098039 45.2333202,9.64917541 C45.2333202,8.88854695 45.4941765,8.24500497 46.0176638,7.71941678 C46.5402638,7.19382858 47.1906301,6.93103448 47.9687628,6.93103448 C48.7424592,6.93103448 49.3919383,7.19469589 49.9172001,7.722886 C50.4424619,8.25107612 50.7050928,8.89288349 50.7050928,9.64917541 C50.7050928,10.4098039 50.4433492,11.0533459 49.9207492,11.578934 L49.9207492,11.578934 Z" id="Fill-21" fill="#333333"></path>
                            <polyline id="Fill-23" fill="#333333" points="51.399921 12.3673163 51.399921 6.93103448 52.1932622 6.93103448 54.6569285 11.1595557 54.6848095 11.1595557 54.6569285 10.1121654 54.6569285 6.93103448 55.30833 6.93103448 55.30833 12.3673163 54.6282027 12.3673163 52.0513225 7.93312244 52.0225967 7.93312244 52.0513225 8.98141879 52.0513225 12.3673163 51.399921 12.3673163"></polyline>
                            <polygon id="Fill-25" fill="#333333" points="56.0031583 12.3673163 56.605835 12.3673163 56.605835 6.93103448 56.0031583 6.93103448"></polygon>
                            <path d="M58.212614,11.6995597 L59.688976,11.6995597 C59.9707318,11.6995597 60.1991824,11.6053308 60.3752797,11.4177791 C60.5504252,11.2311334 60.6379979,11.0263668 60.6379979,10.8025732 C60.6379979,10.5805917 60.5475695,10.3767311 60.3667128,10.1918976 C60.1858561,10.00797 59.9488386,9.91464718 59.6566122,9.91464718 L58.212614,9.91464718 L58.212614,11.6995597 Z M58.212614,9.26138731 L59.5452425,9.26138731 C59.8222389,9.26138731 60.0440264,9.17531284 60.2115568,8.99953973 C60.3790872,8.82557871 60.4619006,8.6344028 60.4619006,8.42691804 C60.4619006,8.21943328 60.3819429,8.02916342 60.2191718,7.85701449 C60.0573526,7.68577161 59.8431802,7.5987911 59.5776064,7.5987911 L58.212614,7.5987911 L58.212614,9.26138731 Z M57.4796684,12.3673163 L57.4796684,6.93103448 L59.5452425,6.93103448 C59.9916731,6.93103448 60.3790872,7.07147176 60.7055812,7.35234633 C61.0330271,7.63322089 61.19675,7.98657921 61.19675,8.41151524 C61.19675,8.66973863 61.1263111,8.89715642 60.9844813,9.09467466 C60.8445553,9.2921929 60.6570355,9.44169065 60.4228736,9.54316792 L60.4228736,9.57306747 C60.7036775,9.66457821 60.9359356,9.82132434 61.1167923,10.0442119 C61.2966971,10.2670995 61.3880774,10.5253228 61.3880774,10.8188821 C61.3880774,11.2637511 61.2157876,11.6334183 60.8731117,11.9269775 C60.5304358,12.2205367 60.1249359,12.3673163 59.6566122,12.3673163 L57.4796684,12.3673163 L57.4796684,12.3673163 Z" id="Fill-27" fill="#333333"></path>
                            <polyline id="Fill-29" fill="#333333" points="62.0829056 12.3673163 62.0829056 6.93103448 62.7986737 6.93103448 62.7986737 11.6995597 65.2096328 11.6995597 65.2096328 12.3673163 62.0829056 12.3673163"></polyline>
                            <polyline id="Fill-31" fill="#333333" points="69.0311883 7.5987911 66.5926446 7.5987911 66.5926446 9.3229985 68.7910828 9.3229985 68.7910828 9.97535232 66.5926446 9.97535232 66.5926446 11.6995597 69.0311883 11.6995597 69.0311883 12.3673163 65.9044611 12.3673163 65.9044611 6.93103448 69.0311883 6.93103448 69.0311883 7.5987911"></polyline>
                            <polyline id="Fill-33" fill="#333333" points="75.2846427 7.5987911 72.8452064 7.5987911 72.8452064 9.3229985 75.0445372 9.3229985 75.0445372 9.97535232 72.8452064 9.97535232 72.8452064 11.6995597 75.2846427 11.6995597 75.2846427 12.3673163 72.1579155 12.3673163 72.1579155 6.93103448 75.2846427 6.93103448 75.2846427 7.5987911"></polyline>
                            <polyline id="Fill-35" fill="#333333" points="76.0663245 12.3673163 76.0663245 6.93103448 76.8588208 6.93103448 79.3224871 11.1595557 79.3503681 11.1595557 79.3224871 10.1121654 79.3224871 6.93103448 79.9747335 6.93103448 79.9747335 12.3673163 79.2946061 12.3673163 76.7168811 7.93312244 76.6890001 7.93312244 76.7168811 8.98141879 76.7168811 12.3673163 76.0663245 12.3673163"></polyline>
                            <path d="M7.84014972,27.3463268 C7.49983569,27.2570617 7.2783261,26.928042 7.2783261,26.4188991 L7.2783261,9.61283887 C7.2783261,9.1412949 7.46588151,8.82327285 7.76319309,8.70764618 L7.76319309,8.70764618 L16.2442272,18.0734247 L7.84014972,27.3463268 L7.84014972,27.3463268 Z M9.00762502,26.989588 L19.2161136,21.3553393 L16.7296911,18.6095324 L9.00762502,26.989588 L9.00762502,26.989588 Z M19.2864102,14.716737 L9.22018787,9.15971627 L16.7444104,17.521532 L19.2864102,14.716737 L19.2864102,14.716737 Z M19.9693952,15.0937763 L23.9127868,17.270711 C24.6594208,17.6828875 24.6662488,18.3473116 23.9127868,18.7631608 L19.8696312,20.9946512 L17.2324654,18.0639172 L19.9693952,15.0937763 L19.9693952,15.0937763 Z" id="google-play" fill="#333333"></path>
                            <rect id="Rectangle-4" stroke="#333333" stroke-width="0.605" x="-0.3025" y="-0.3025" width="110.605" height="35.605" rx="1.21"></rect>
                        </g>
                        <g id="Group-9" transform="translate(29.000000, 6.000000)"></g>
                    </g>
                </g>
            </g>
        </g>
    </g>
</svg>